<svg width="156" height="35" viewBox="0 0 156 35" fill="none" xmlns="http://www.w3.org/2000/svg">
<path d="M0.927 34H6.097V19.665H12.771V14.965H6.097V5.8H14.604V1.1H0.927V34ZM17.0833 34H22.2533V1.1H17.0833V34ZM26.1252 34H39.8022V29.3H31.2952V1.1H26.1252V34ZM49.5709 34.47C54.6469 34.47 57.4199 31.462 57.4199 26.198V8.902C57.4199 3.638 54.6469 0.629998 49.5709 0.629998C44.4949 0.629998 41.7219 3.638 41.7219 8.902V26.198C41.7219 31.462 44.4949 34.47 49.5709 34.47ZM49.5709 29.77C47.9259 29.77 46.8919 28.877 46.8919 26.527V8.573C46.8919 6.223 47.9259 5.33 49.5709 5.33C51.2159 5.33 52.2499 6.223 52.2499 8.573V26.527C52.2499 28.877 51.2159 29.77 49.5709 29.77ZM67.6373 34.47C72.7133 34.47 75.4393 31.462 75.4393 26.104C75.4393 22.015 74.0763 19.383 69.7523 15.576C66.3683 12.615 65.2873 10.876 65.2873 8.479C65.2873 6.223 66.2273 5.33 67.8723 5.33C69.5173 5.33 70.4573 6.223 70.4573 8.573V10.265H75.3453V8.902C75.3453 3.638 72.8543 0.629998 67.8253 0.629998C62.7963 0.629998 60.1173 3.638 60.1173 8.808C60.1173 12.568 61.5273 15.247 65.8513 19.054C69.2353 22.015 70.2693 23.754 70.2693 26.48C70.2693 28.924 69.2353 29.77 67.5903 29.77C65.9453 29.77 64.9113 28.924 64.9113 26.574V24.318H60.0233V26.198C60.0233 31.462 62.5613 34.47 67.6373 34.47ZM85.8766 34.47C90.9526 34.47 93.7256 31.462 93.7256 26.198V8.902C93.7256 3.638 90.9526 0.629998 85.8766 0.629998C80.8006 0.629998 78.0276 3.638 78.0276 8.902V26.198C78.0276 31.462 80.8006 34.47 85.8766 34.47ZM85.8766 29.77C84.2316 29.77 83.1976 28.877 83.1976 26.527V8.573C83.1976 6.223 84.2316 5.33 85.8766 5.33C87.5216 5.33 88.5556 6.223 88.5556 8.573V26.527C88.5556 28.877 87.5216 29.77 85.8766 29.77ZM97.2219 34H102.392V19.665H109.066V14.965H102.392V5.8H110.899V1.1H97.2219V34ZM113.378 34H127.055V29.3H118.548V1.1H113.378V34ZM129.534 34H134.704V1.1H129.534V34ZM137.166 34H142.054L145.908 22.532H146.002L149.762 34H155.214L149.245 17.174L154.932 1.1H150.044L146.472 11.722H146.378L142.9 1.1H137.448L143.135 17.174L137.166 34Z" fill="#581BA9"/>
</svg>
