<svg width="448" height="99" viewBox="0 0 448 99" fill="none" xmlns="http://www.w3.org/2000/svg">
<path d="M0.576 1.79999H40.152V15.4H15.536V41.92H34.848V55.52H15.536V97H0.576V1.79999ZM47.326 1.79999H62.286V97H47.326V1.79999ZM73.4901 1.79999H88.4501V83.4H113.066V97H73.4901V1.79999ZM141.333 98.36C133.989 98.36 128.367 96.2747 124.469 92.104C120.57 87.9333 118.621 82.04 118.621 74.424V24.376C118.621 16.76 120.57 10.8667 124.469 6.696C128.367 2.52533 133.989 0.439995 141.333 0.439995C148.677 0.439995 154.298 2.52533 158.197 6.696C162.095 10.8667 164.045 16.76 164.045 24.376V74.424C164.045 82.04 162.095 87.9333 158.197 92.104C154.298 96.2747 148.677 98.36 141.333 98.36ZM141.333 84.76C146.501 84.76 149.085 81.632 149.085 75.376V23.424C149.085 17.168 146.501 14.04 141.333 14.04C136.165 14.04 133.581 17.168 133.581 23.424V75.376C133.581 81.632 136.165 84.76 141.333 84.76ZM193.61 98.36C186.357 98.36 180.871 96.32 177.154 92.24C173.437 88.0693 171.578 82.1307 171.578 74.424V68.984H185.722V75.512C185.722 81.6773 188.306 84.76 193.474 84.76C196.013 84.76 197.917 84.0347 199.186 82.584C200.546 81.0427 201.226 78.5947 201.226 75.24C201.226 71.2507 200.319 67.76 198.506 64.768C196.693 61.6853 193.338 58.0133 188.442 53.752C182.277 48.312 177.97 43.416 175.522 39.064C173.074 34.6213 171.85 29.6347 171.85 24.104C171.85 16.5787 173.754 10.776 177.562 6.696C181.37 2.52533 186.901 0.439995 194.154 0.439995C201.317 0.439995 206.711 2.52533 210.338 6.696C214.055 10.776 215.914 16.6693 215.914 24.376V28.32H201.77V23.424C201.77 20.16 201.135 17.8027 199.866 16.352C198.597 14.8107 196.738 14.04 194.29 14.04C189.303 14.04 186.81 17.0773 186.81 23.152C186.81 26.5973 187.717 29.816 189.53 32.808C191.434 35.8 194.834 39.4267 199.73 43.688C205.986 49.128 210.293 54.0693 212.65 58.512C215.007 62.9547 216.186 68.168 216.186 74.152C216.186 81.9493 214.237 87.9333 210.338 92.104C206.53 96.2747 200.954 98.36 193.61 98.36ZM246.388 98.36C239.044 98.36 233.422 96.2747 229.524 92.104C225.625 87.9333 223.675 82.04 223.675 74.424V24.376C223.675 16.76 225.625 10.8667 229.524 6.696C233.422 2.52533 239.044 0.439995 246.388 0.439995C253.732 0.439995 259.353 2.52533 263.252 6.696C267.15 10.8667 269.1 16.76 269.1 24.376V74.424C269.1 82.04 267.15 87.9333 263.252 92.104C259.353 96.2747 253.732 98.36 246.388 98.36ZM246.388 84.76C251.556 84.76 254.139 81.632 254.139 75.376V23.424C254.139 17.168 251.556 14.04 246.388 14.04C241.22 14.04 238.636 17.168 238.636 23.424V75.376C238.636 81.632 241.22 84.76 246.388 84.76ZM279.217 1.79999H318.793V15.4H294.177V41.92H313.489V55.52H294.177V97H279.217V1.79999ZM325.967 1.79999H340.927V83.4H365.543V97H325.967V1.79999ZM372.717 1.79999H387.677V97H372.717V1.79999ZM412.073 48.312L395.617 1.79999H411.393L421.457 32.536H421.729L432.065 1.79999H446.209L429.753 48.312L447.025 97H431.249L420.369 63.816H420.097L408.945 97H394.801L412.073 48.312Z" fill="#581BA9"/>
</svg>
